<?xml version="1.0" encoding="UTF-8" standalone="no"?>
<!-- Created with Inkscape (http://www.inkscape.org/) -->

<svg
   width="210mm"
   height="280mm"
   viewBox="0 0 210 280"
   version="1.1"
   id="svg5"
   inkscape:version="1.1 (c4e8f9e, 2021-05-24)"
   sodipodi:docname="logo.svg"
   xmlns:inkscape="http://www.inkscape.org/namespaces/inkscape"
   xmlns:sodipodi="http://sodipodi.sourceforge.net/DTD/sodipodi-0.dtd"
   xmlns="http://www.w3.org/2000/svg"
   xmlns:svg="http://www.w3.org/2000/svg">
  <sodipodi:namedview
     id="namedview7"
     pagecolor="#ffffff"
     bordercolor="#666666"
     borderopacity="1.0"
     inkscape:pageshadow="2"
     inkscape:pageopacity="0.0"
     inkscape:pagecheckerboard="0"
     inkscape:document-units="mm"
     showgrid="false"
     inkscape:zoom="0.48195146"
     inkscape:cx="285.29844"
     inkscape:cy="569.55943"
     inkscape:window-width="1440"
     inkscape:window-height="763"
     inkscape:window-x="0"
     inkscape:window-y="25"
     inkscape:window-maximized="0"
     inkscape:current-layer="layer1"
     height="296mm" />
  <defs
     id="defs2">
    <clipPath
       clipPathUnits="userSpaceOnUse"
       id="clipPath9514">
      <rect
         style="fill:#0000ff;fill-rule:evenodd;stroke-width:0.999999"
         id="rect9516"
         width="132.79344"
         height="153.54243"
         x="226.35451"
         y="302.63541" />
    </clipPath>
  </defs>
  <g
     inkscape:label="Layer 1"
     inkscape:groupmode="layer"
     id="layer1">
    <text
       xml:space="preserve"
       style="font-style:normal;font-weight:normal;font-size:10.5833px;line-height:1.25;font-family:sans-serif;fill:#000000;fill-opacity:1;stroke:none;stroke-width:0.264583"
       x="60.388168"
       y="114.73752"
       id="text693"><tspan
         sodipodi:role="line"
         style="stroke-width:0.264583"
         x="60.388168"
         y="114.73752"
         id="tspan699" /></text>
    <g
       id="g9532"
       transform="matrix(1.7850081,0,0,1.7850081,-13.409819,-38.105295)">
      <g
         style="fill:none;stroke:none;stroke-linecap:square;stroke-miterlimit:10"
         id="g8419"
         transform="matrix(0.26458333,0,0,0.26458333,28.496689,-2.6656297)">
        <g
           clip-path="url(#p.0)"
           id="g8405">
          <path
             fill="#000000"
             fill-opacity="0"
             d="M 0,0 H 395.76117 V 713.6457 H 0 Z"
             fill-rule="evenodd"
             id="path8395" />
          <path
             fill="#000000"
             fill-opacity="0"
             d="M 32,-16 H 441.6063 V 488.18896 H 32 Z"
             fill-rule="evenodd"
             id="path8397" />
          <path
             fill="#00a693"
             d="m 307,361.43747 q 5.125,0 8.85937,3.96875 l 24.73438,26.82813 q -20.53125,25.4375 -50.51563,38.96875 -29.98437,13.53125 -71.98437,13.53125 -37.5625,0 -67.54688,-12.82813 Q 120.5625,419.06247 99.328125,396.2031 78.09375,373.3281 66.78125,341.60935 q -11.3125,-31.73438 -11.3125,-69.3125 0,-38.03125 12.59375,-69.64063 12.609375,-31.60937 35.46875,-54.46875 22.85938,-22.875 54.70312,-35.59375 31.85938,-12.71875 70.35938,-12.71875 37.5625,0 65.67187,12.01563 28.125,12.01562 48.1875,31.84375 l -21,29.17187 q -1.85937,2.79688 -4.78125,4.90625 -2.90625,2.09375 -8.04687,2.09375 -5.35938,0 -10.96875,-4.20312 -5.59375,-4.20313 -14.23438,-9.09375 -8.625,-4.90625 -21.8125,-9.09375 -13.1875,-4.20313 -33.48437,-4.20313 -23.79688,0 -43.75,8.28125 -19.9375,8.28125 -34.29688,23.6875 -14.34375,15.39063 -22.40624,37.4375 -8.04688,22.04688 -8.04688,49.57813 0,28.46875 8.04688,50.64062 8.06249,22.17188 21.82812,37.34375 13.76562,15.15625 32.42187,23.20313 18.67188,8.04687 40.14063,8.04687 12.82812,0 23.20312,-1.39062 10.39063,-1.40625 19.14063,-4.4375 8.75,-3.03125 16.5625,-7.8125 7.82812,-4.79688 15.53125,-11.78125 2.32812,-2.10938 4.89062,-3.39063 2.5625,-1.28125 5.60938,-1.28125 z"
             fill-rule="nonzero"
             id="path8399" />
          <path
             fill="#000000"
             fill-opacity="0"
             d="m 32,210.58583 h 412.40945 v 584.9764 H 32 Z"
             fill-rule="evenodd"
             id="path8401" />
          <path
             fill="#f77f50"
             d="m 307,588.0233 q 5.125,0 8.85937,3.96875 l 24.73438,26.82812 q -20.53125,25.4375 -50.51563,38.96875 -29.98437,13.53125 -71.98437,13.53125 -37.5625,0 -67.54688,-12.82812 Q 120.5625,645.6483 99.328125,622.78892 78.09375,599.91392 66.78125,568.19517 55.46875,536.4608 55.46875,498.88264 q 0,-38.03125 12.59375,-69.64062 12.609375,-31.60938 35.46875,-54.46875 22.85938,-22.875 54.70312,-35.59375 31.85938,-12.71875 70.35938,-12.71875 37.5625,0 65.67187,12.01562 28.125,12.01563 48.1875,31.84375 l -21,29.17188 q -1.85937,2.79687 -4.78125,4.90625 -2.90625,2.09375 -8.04687,2.09375 -5.35938,0 -10.96875,-4.20313 -5.59375,-4.20312 -14.23438,-9.09375 -8.625,-4.90625 -21.8125,-9.09375 -13.1875,-4.20312 -33.48437,-4.20312 -23.79688,0 -43.75,8.28125 -19.9375,8.28125 -34.29688,23.6875 -14.34375,15.39062 -22.40624,37.4375 -8.04688,22.04687 -8.04688,49.57812 0,28.46878 8.04688,50.64066 8.06249,22.17188 21.82812,37.34375 13.76562,15.15625 32.42187,23.20313 18.67188,8.04687 40.14063,8.04687 12.82812,0 23.20312,-1.39062 10.39063,-1.40625 19.14063,-4.4375 8.75,-3.03125 16.5625,-7.8125 7.82812,-4.79688 15.53125,-11.78125 2.32812,-2.10938 4.89062,-3.39063 2.5625,-1.28125 5.60938,-1.28125 z"
             fill-rule="nonzero"
             id="path8403" />
        </g>
      </g>
      <g
         style="fill:none;stroke:none;stroke-linecap:square;stroke-miterlimit:10"
         id="g9386"
         transform="matrix(0.26458333,0,0,0.26458333,28.496689,-2.6656297)"
         clip-path="url(#clipPath9514)">
        <g
           clip-path="url(#p.0)"
           id="g9372">
          <path
             fill="#000000"
             fill-opacity="0"
             d="M 0,0 H 395.76117 V 713.6457 H 0 Z"
             fill-rule="evenodd"
             id="path9362" />
          <path
             fill="#000000"
             fill-opacity="0"
             d="m 32,210.58583 h 412.40945 v 584.9764 H 32 Z"
             fill-rule="evenodd"
             id="path9364" />
          <path
             fill="#f77f50"
             d="m 307,588.0233 q 5.125,0 8.85937,3.96875 l 24.73438,26.82812 q -20.53125,25.4375 -50.51563,38.96875 -29.98437,13.53125 -71.98437,13.53125 -37.5625,0 -67.54688,-12.82812 Q 120.5625,645.6483 99.328125,622.78892 78.09375,599.91392 66.78125,568.19517 55.46875,536.4608 55.46875,498.88264 q 0,-38.03125 12.59375,-69.64062 12.609375,-31.60938 35.46875,-54.46875 22.85938,-22.875 54.70312,-35.59375 31.85938,-12.71875 70.35938,-12.71875 37.5625,0 65.67187,12.01562 28.125,12.01563 48.1875,31.84375 l -21,29.17188 q -1.85937,2.79687 -4.78125,4.90625 -2.90625,2.09375 -8.04687,2.09375 -5.35938,0 -10.96875,-4.20313 -5.59375,-4.20312 -14.23438,-9.09375 -8.625,-4.90625 -21.8125,-9.09375 -13.1875,-4.20312 -33.48437,-4.20312 -23.79688,0 -43.75,8.28125 -19.9375,8.28125 -34.29688,23.6875 -14.34375,15.39062 -22.40624,37.4375 -8.04688,22.04687 -8.04688,49.57812 0,28.46878 8.04688,50.64066 8.06249,22.17188 21.82812,37.34375 13.76562,15.15625 32.42187,23.20313 18.67188,8.04687 40.14063,8.04687 12.82812,0 23.20312,-1.39062 10.39063,-1.40625 19.14063,-4.4375 8.75,-3.03125 16.5625,-7.8125 7.82812,-4.79688 15.53125,-11.78125 2.32812,-2.10938 4.89062,-3.39063 2.5625,-1.28125 5.60938,-1.28125 z"
             fill-rule="nonzero"
             id="path9366" />
          <path
             fill="#000000"
             fill-opacity="0"
             d="M 32,-16 H 441.6063 V 488.18896 H 32 Z"
             fill-rule="evenodd"
             id="path9368" />
          <path
             fill="#00a693"
             d="m 307,361.43747 q 5.125,0 8.85937,3.96875 l 24.73438,26.82813 q -20.53125,25.4375 -50.51563,38.96875 -29.98437,13.53125 -71.98437,13.53125 -37.5625,0 -67.54688,-12.82813 Q 120.5625,419.06247 99.328125,396.2031 78.09375,373.3281 66.78125,341.60935 q -11.3125,-31.73438 -11.3125,-69.3125 0,-38.03125 12.59375,-69.64063 12.609375,-31.60937 35.46875,-54.46875 22.85938,-22.875 54.70312,-35.59375 31.85938,-12.71875 70.35938,-12.71875 37.5625,0 65.67187,12.01563 28.125,12.01562 48.1875,31.84375 l -21,29.17187 q -1.85937,2.79688 -4.78125,4.90625 -2.90625,2.09375 -8.04687,2.09375 -5.35938,0 -10.96875,-4.20312 -5.59375,-4.20313 -14.23438,-9.09375 -8.625,-4.90625 -21.8125,-9.09375 -13.1875,-4.20313 -33.48437,-4.20313 -23.79688,0 -43.75,8.28125 -19.9375,8.28125 -34.29688,23.6875 -14.34375,15.39063 -22.40624,37.4375 -8.04688,22.04688 -8.04688,49.57813 0,28.46875 8.04688,50.64062 8.06249,22.17188 21.82812,37.34375 13.76562,15.15625 32.42187,23.20313 18.67188,8.04687 40.14063,8.04687 12.82812,0 23.20312,-1.39062 10.39063,-1.40625 19.14063,-4.4375 8.75,-3.03125 16.5625,-7.8125 7.82812,-4.79688 15.53125,-11.78125 2.32812,-2.10938 4.89062,-3.39063 2.5625,-1.28125 5.60938,-1.28125 z"
             fill-rule="nonzero"
             id="path9370" />
        </g>
      </g>
    </g>
    <g
       style="fill:none;stroke:none;stroke-linecap:square;stroke-miterlimit:10"
       id="g9564"
       transform="matrix(0.38886364,0,0,0.38886364,-7.7873633,-17.212854)">
      <g
         clip-path="url(#p.0)"
         id="g9549">
        <path
           fill="#000000"
           fill-opacity="0"
           d="M 0,0 H 190.56168 V 777.5932 H 0 Z"
           fill-rule="evenodd"
           id="path9537" />
        <path
           fill="#000000"
           fill-opacity="0"
           d="M 24,16.007874 H 172.31496 V 760.25982 H 24 Z"
           fill-rule="evenodd"
           id="path9539" />
        <path
           fill="#b4436c"
           d="m 104.76842,207.70325 q -31.140625,0 -47.140625,-17.90625 -16,-17.92188 -16,-46.29688 0,-24.10937 10.671875,-44.79687 6.171875,-12.171875 15.5625,-21.34375 9.390625,-9.171875 25.390625,-15.140625 16.000005,-5.96875 36.265625,-5.96875 6.82812,0 12.15625,1.28125 5.32812,1.265625 5.32812,1.703125 0,10.234375 -1.39062,23.359375 -1.375,13.109375 -1.59375,13.328125 -1.0625,1.0625 -8.85938,3.421875 -7.78125,2.343745 -11.60937,2.343745 v -1.28125 q 0,-9.60937 -2.78125,-13.437495 -2.76563,-3.84375 -9.59375,-3.84375 -15.15625,0 -28.171875,15.890625 -13,15.89062 -13,43.625 0,14.71875 7.25,26.45312 3.84375,6.1875 11.203125,10.03125 7.359375,3.82813 17.375,3.82813 20.0625,0 39.04687,-18.54688 0.85938,0 3.51563,2.67188 2.67187,2.65625 5.23437,7.14062 5.32813,8.53125 5.32813,10.45313 0,1.92187 -6.60938,7.15625 -6.60937,5.21875 -20.0625,10.54687 -13.4375,5.32813 -27.51562,5.32813 z"
           fill-rule="nonzero"
           id="path9541" />
        <path
           fill="#b4436c"
           d="m 77.78005,307.98135 q 25.17188,-2.35937 37.01563,-11.84375 11.84375,-9.5 11.84375,-18.76562 0,-9.28125 -9.17188,-13.65625 -9.17187,-4.375 -23.25,-4.375 -7.46875,0 -15.15625,1.28125 -1.28125,9.17187 -1.28125,47.35937 z m 2.34375,73.59375 q -2.34375,2.34375 -9.390625,3.73438 -7.03125,1.39062 -11.734375,1.39062 -4.6875,0 -8.09375,-1.28125 L 52.1863,262.3251 q -2.78125,-3.42187 -5.453125,-11.3125 -2.65625,-7.89062 -2.65625,-9.70312 0,-1.8125 0.421875,-2.34375 0.4375,-0.53125 13.546875,-1.28125 13.125,-0.75 26.5625,-0.75 13.4375,0 23.890625,1.5 10.45313,1.48437 21.76563,5.21875 11.3125,3.73437 17.92188,11.84375 6.60937,8.10937 6.60937,20.8125 0,12.6875 -8.96875,23.5625 -8.95312,10.875 -24.31251,18.34375 0,3.40625 13.43751,30.60937 13.4375,27.20313 21.34375,35.09375 0.20313,0.21875 0.20313,0.75 0,0.53125 -3.40625,2.03125 -9.39063,4.46875 -20.26563,4.46875 l -5.34375,-0.42187 q -4.6875,-4.6875 -16.3125,-31.14063 -11.625005,-26.45312 -12.906255,-32.4375 -2.5625,1.5 -20.265625,4.48438 0.421875,42.875 2.125,49.92187 z"
           fill-rule="nonzero"
           id="path9543" />
        <path
           fill="#b4436c"
           d="m 83.76536,426.1657 -1.28125,87.89063 q 0,16.42187 0.640625,24.3125 3.40625,0.85937 10.96875,0.85937 7.578125,0 13.015625,-1.28125 5.45313,-1.28125 9.1875,-4.57812 3.73438,-3.3125 6.07813,-6.1875 2.34375,-2.89063 4.04687,-8.64063 2.56249,-7.6875 5.12499,-20.26562 0,-0.21875 3.09375,-0.21875 3.09375,0 9.8125,2.89062 6.71875,2.875 6.71875,4.35938 0,16.42187 -1.70312,37.125 -1.71875,23.03125 -4.17188,23.03125 -2.45312,0 -9.5,-1.8125 -7.03125,-1.8125 -10.65624,-3.29688 -19.20312,3.1875 -49.703125,3.40625 l -10.671875,0.21875 -8.53125,-1.07812 q -0.84375,-0.84375 -0.84375,-18.76563 l 0.84375,-81.70312 q 0,-24.96875 -1.171875,-26.5625 -1.171875,-1.59375 -3.953125,-8.09375 -2.765625,-6.51563 -2.765625,-8.4375 0,-0.85938 4.6875,-2.34375 11.734375,-4.26563 20.6875,-4.26563 8.96875,0 9.5,0.64063 0.546875,0.64062 0.546875,12.79687 z"
           fill-rule="nonzero"
           id="path9545" />
        <path
           fill="#b4436c"
           d="m 130.9082,616.8813 q -3.42188,-0.42188 -7.79688,-0.42188 -4.375,0 -10.67187,0.85938 -6.28125,0.84375 -13,2.65625 -6.71875,1.8125 -10.984375,5.65625 -4.265625,3.84375 -4.265625,9.28125 0,5.4375 6.5,9.59375 6.515625,4.15625 15.6875,7.6875 9.17187,3.51562 18.4375,8 9.28125,4.46875 15.78125,13.10937 6.51562,8.64063 6.51562,20.8125 0,21.53125 -20.59375,36.57813 -20.57812,15.04687 -51.937495,15.04687 -15.78125,0 -23.46875,-1.71875 -1.90625,-1.92187 -1.90625,-22.92187 0,-21.01563 0.84375,-25.28125 0.640625,-1.92188 7.46875,-4.6875 6.828125,-2.78125 13.234375,-2.78125 0,25.17187 5.328125,30.5 2.125,2.14062 8.109375,2.14062 13.640625,0 23.78125,-7.67187 10.14062,-7.6875 10.14062,-18.14063 0,-7.04687 -6.625,-12.375 -6.60937,-5.32812 -16.10937,-9.28125 -9.484375,-3.95312 -18.875,-8.3125 -9.390625,-4.375 -16,-12.04687 -6.609375,-7.6875 -6.609375,-18.14063 0,-15.57812 18.65625,-28.48437 18.671875,-12.90625 54.093745,-12.90625 8.3125,0 9.375,1.0625 0.21875,0.64062 0.21875,3.09375 0,2.45312 -1.5,9.5 -1.48437,7.03125 -3.82812,9.59375 z"
           fill-rule="nonzero"
           id="path9547" />
      </g>
    </g>
  </g>
</svg>
